<svg width="28" height="30" viewBox="0 0 28 30" fill="none" xmlns="http://www.w3.org/2000/svg">
<path d="M1.48467 1.00002C1.42095 0.999781 1.35782 1.01215 1.29891 1.03642C1.24 1.06069 1.18647 1.09638 1.14142 1.14143C1.09636 1.18649 1.06067 1.24001 1.0364 1.29892C1.01213 1.35783 0.999761 1.42097 1 1.48468V21.6556V25.8789C1.00001 27.6012 2.40464 29 4.12861 29H23.598C23.5993 28.9997 23.6006 28.9994 23.6018 28.999C25.6216 28.9681 27.2547 27.3228 27.2547 25.2981V19.6915C27.2549 19.628 27.2427 19.5651 27.2186 19.5064C27.1945 19.4477 27.159 19.3943 27.1143 19.3492C27.0695 19.3042 27.0163 19.2685 26.9578 19.244C26.8992 19.2196 26.8364 19.207 26.7729 19.2068H20.8004V16.8335C20.7997 16.7348 20.7688 16.6387 20.7118 16.5582C24.0833 16.3549 26.7663 13.5509 26.7663 10.1341C26.7663 6.74715 24.1303 3.9647 20.8004 3.71843V1.48466C20.8009 1.35662 20.7505 1.23364 20.6603 1.14275C20.5702 1.05186 20.4476 1.00051 20.3195 1L1.48467 1.00002ZM1.96555 1.96557H19.8376V3.71845C16.5078 3.96473 13.8718 6.74717 13.8718 10.1341C13.8718 13.551 16.5547 16.3549 19.9263 16.5582C19.8693 16.6387 19.8383 16.7348 19.8376 16.8335V22.2864V25.2981C19.8376 26.3821 20.3046 27.3571 21.0483 28.0345H4.12861C2.92192 28.0345 1.96555 27.0821 1.96555 25.8789V15.0014V1.96557ZM20.3195 4.66703C23.352 4.66703 25.7997 7.10838 25.7997 10.1341C25.7997 13.1598 23.352 15.604 20.3195 15.604C17.2869 15.604 14.8383 13.1598 14.8383 10.1341C14.8383 7.10838 17.2869 4.66703 20.3195 4.66703ZM20.426 5.87491C20.3623 5.87466 20.2992 5.88703 20.2402 5.9113C20.1813 5.93557 20.1278 5.97126 20.0828 6.01631C20.0377 6.06137 20.002 6.11489 19.9777 6.17381C19.9535 6.23272 19.9411 6.29586 19.9414 6.35957V7.11485H19.8414C18.916 7.11485 18.2026 7.9256 18.2026 8.86491C18.2026 9.80423 18.916 10.6187 19.8414 10.6187H20.3195H20.7966C21.1541 10.6187 21.4736 10.9359 21.4736 11.4023C21.4736 11.8687 21.154 12.1896 20.7966 12.1896H18.9786C18.9152 12.1894 18.8522 12.2017 18.7935 12.2258C18.7348 12.2499 18.6814 12.2853 18.6364 12.33C18.5914 12.3748 18.5556 12.428 18.5312 12.4866C18.5067 12.5452 18.4941 12.608 18.494 12.6715C18.4937 12.7352 18.5061 12.7983 18.5304 12.8572C18.5546 12.9162 18.5903 12.9697 18.6354 13.0147C18.6804 13.0598 18.734 13.0955 18.7929 13.1197C18.8518 13.144 18.9149 13.1564 18.9786 13.1561H19.9414V13.9114C19.9411 13.9751 19.9535 14.0383 19.9777 14.0972C20.002 14.1561 20.0377 14.2096 20.0828 14.2547C20.1278 14.2997 20.1813 14.3354 20.2402 14.3597C20.2992 14.384 20.3623 14.3963 20.426 14.3961C20.4894 14.3958 20.5521 14.3831 20.6106 14.3586C20.6691 14.3341 20.7222 14.2983 20.7668 14.2533C20.8115 14.2083 20.8468 14.155 20.8709 14.0963C20.8949 14.0376 20.9071 13.9748 20.9069 13.9114V13.1514C21.7781 13.0898 22.4363 12.304 22.4363 11.4023C22.4363 10.463 21.722 9.65225 20.7966 9.65225H20.3195H19.8414C19.4839 9.65225 19.1644 9.33129 19.1644 8.86491C19.1644 8.39851 19.4838 8.08134 19.8414 8.08134H21.6593C21.7231 8.08159 21.7862 8.06923 21.8451 8.04496C21.904 8.02069 21.9576 7.985 22.0026 7.93995C22.0477 7.89489 22.0834 7.84136 22.1076 7.78245C22.1319 7.72354 22.1443 7.6604 22.144 7.59668C22.1439 7.53321 22.1312 7.47037 22.1068 7.41179C22.0824 7.3532 22.0466 7.30001 22.0016 7.25525C21.9566 7.2105 21.9032 7.17506 21.8445 7.15097C21.7857 7.12688 21.7228 7.1146 21.6593 7.11485H20.9069V6.35957C20.9072 6.29618 20.8949 6.23335 20.8709 6.17468C20.8469 6.11601 20.8115 6.06265 20.7668 6.01765C20.7222 5.97264 20.6691 5.93687 20.6106 5.91238C20.5522 5.88789 20.4894 5.87516 20.426 5.87491ZM5.67877 7.60706C5.61505 7.60681 5.55192 7.61917 5.493 7.64344C5.43409 7.66771 5.38056 7.7034 5.33551 7.74845C5.29045 7.79351 5.25476 7.84703 5.23049 7.90595C5.20622 7.96486 5.19386 8.028 5.19411 8.09172C5.19436 8.15511 5.20709 8.21784 5.23158 8.27632C5.25607 8.3348 5.29184 8.38788 5.33684 8.43254C5.38185 8.47719 5.43521 8.51254 5.49388 8.53658C5.55254 8.56061 5.61537 8.57285 5.67877 8.5726H11.3382C11.4656 8.57211 11.5876 8.52128 11.6777 8.43121C11.7677 8.34113 11.8186 8.2191 11.8191 8.09172C11.8193 8.02832 11.8071 7.96549 11.783 7.90682C11.759 7.84815 11.7236 7.79479 11.679 7.74979C11.6343 7.70478 11.5813 7.66902 11.5228 7.64453C11.4643 7.62003 11.4016 7.6073 11.3382 7.60706H5.67877ZM5.67877 12.7243C5.61505 12.724 5.55192 12.7364 5.493 12.7607C5.43409 12.7849 5.38056 12.8206 5.33551 12.8657C5.29045 12.9107 5.25476 12.9643 5.23049 13.0232C5.20622 13.0821 5.19386 13.1452 5.19411 13.2089C5.19423 13.2724 5.20687 13.3352 5.23131 13.3938C5.25574 13.4524 5.29149 13.5056 5.33651 13.5504C5.38153 13.5951 5.43493 13.6306 5.49366 13.6547C5.55239 13.6787 5.61529 13.691 5.67877 13.6908H11.3382C11.4657 13.6903 11.5879 13.6393 11.678 13.549C11.7681 13.4588 11.8188 13.3365 11.8191 13.2089C11.8193 13.1455 11.8071 13.0827 11.783 13.024C11.759 12.9654 11.7236 12.912 11.679 12.867C11.6343 12.822 11.5813 12.7862 11.5228 12.7617C11.4643 12.7373 11.4016 12.7245 11.3382 12.7243H5.67877ZM5.67877 17.8424C5.61537 17.8422 5.55254 17.8544 5.49388 17.8785C5.43521 17.9025 5.38185 17.9379 5.33684 17.9825C5.29184 18.0272 5.25607 18.0802 5.23158 18.1387C5.20709 18.1972 5.19435 18.2599 5.19411 18.3233C5.19386 18.387 5.20623 18.4502 5.23049 18.5091C5.25476 18.568 5.29045 18.6215 5.33551 18.6666C5.38056 18.7116 5.43409 18.7473 5.493 18.7716C5.55192 18.7959 5.61505 18.8082 5.67877 18.808H16.1244C16.1881 18.8082 16.2513 18.7959 16.3102 18.7716C16.3691 18.7473 16.4226 18.7116 16.4677 18.6666C16.5127 18.6215 16.5484 18.568 16.5727 18.5091C16.597 18.4502 16.6093 18.387 16.6091 18.3233C16.6088 18.2599 16.5961 18.1972 16.5716 18.1387C16.5471 18.0802 16.5114 18.0272 16.4664 17.9825C16.4213 17.9379 16.368 17.9025 16.3093 17.8785C16.2507 17.8544 16.1878 17.8422 16.1244 17.8424H5.67877ZM20.8004 20.1733H26.2882V25.2981C26.2882 26.823 25.0733 28.0345 23.5443 28.0345C22.0152 28.0345 20.8004 26.823 20.8004 25.2981V20.1733ZM5.67877 22.9597C5.61537 22.9594 5.55254 22.9717 5.49388 22.9957C5.43521 23.0197 5.38185 23.0551 5.33684 23.0997C5.29184 23.1444 5.25607 23.1975 5.23158 23.2559C5.20709 23.3144 5.19435 23.3772 5.19411 23.4406C5.19423 23.504 5.20687 23.5669 5.23131 23.6254C5.25574 23.684 5.29149 23.7372 5.33651 23.782C5.38153 23.8267 5.43493 23.8622 5.49366 23.8863C5.55239 23.9104 5.61529 23.9226 5.67877 23.9224H16.1244C16.1879 23.9226 16.2508 23.9104 16.3095 23.8863C16.3683 23.8622 16.4217 23.8267 16.4667 23.782C16.5117 23.7372 16.5475 23.684 16.5719 23.6254C16.5963 23.5669 16.609 23.504 16.6091 23.4406C16.6088 23.3772 16.5961 23.3144 16.5716 23.2559C16.5471 23.1975 16.5114 23.1444 16.4664 23.0997C16.4213 23.0551 16.368 23.0197 16.3093 22.9957C16.2507 22.9717 16.1878 22.9594 16.1244 22.9597H5.67877Z" fill="white" stroke="white" stroke-width="0.2"/>
</svg>
