<svg width="26" height="25" viewBox="0 0 26 25" fill="none" xmlns="http://www.w3.org/2000/svg">
<path d="M23.6111 0H2.31481C1.03819 0 0 1.03819 0 2.31481V18.9815C0 20.2581 1.03819 21.2963 2.31481 21.2963H6.01852V22.6852C6.01852 23.9618 7.05671 25 8.33333 25H17.5926C18.8692 25 19.9074 23.9618 19.9074 22.6852V21.2963H23.6111C24.8877 21.2963 25.9259 20.2581 25.9259 18.9815V2.31481C25.9259 1.03819 24.8877 0 23.6111 0ZM25 18.9813C25 19.7475 24.3773 20.3702 23.6111 20.3702H19.4446C19.1888 20.3702 18.9816 20.5774 18.9816 20.8332V22.685C18.9816 23.4512 18.3589 24.0739 17.5927 24.0739H8.33348C7.56729 24.0739 6.94459 23.4512 6.94459 22.685V13.4258C6.94459 12.6596 7.56729 12.0369 8.33348 12.0369H11.1113C11.2339 12.0369 11.352 11.9883 11.4388 11.9015L12.9631 10.3772L14.4874 11.9015C14.5742 11.9883 14.6923 12.0369 14.815 12.0369H17.5927C18.3589 12.0369 18.9816 12.6596 18.9816 13.4258V18.5185C18.9874 19.1215 19.8995 19.1308 19.9076 18.5185V13.4258C19.9076 12.1492 18.8694 11.111 17.5927 11.111H15.0071L13.2906 9.39452C13.1101 9.21396 12.8172 9.21396 12.6356 9.39452L10.9191 11.111H8.33345C7.05683 11.111 6.01864 12.1492 6.01864 13.4258V20.3704H2.31493C1.54874 20.3704 0.926044 19.7477 0.926044 18.9815V5.5557H7.48753C8.05467 5.58695 8.49677 5.15176 8.85327 4.76519C8.94008 4.67838 9.05698 4.62977 9.18083 4.62977H23.1497C23.7492 4.6263 23.7643 3.71193 23.1497 3.70384H9.18083C8.61253 3.67028 8.17274 4.10894 7.81508 4.49436C7.72828 4.58117 7.61138 4.62978 7.48753 4.62978H0.926044V2.31496C0.926044 1.54877 1.54874 0.926074 2.31493 0.926074H23.6112C24.3774 0.926074 25.0001 1.54877 25.0001 2.31496V18.9816L25 18.9813Z" fill="white"/>
</svg>
