<svg width="29" height="26" viewBox="0 0 29 26" fill="none" xmlns="http://www.w3.org/2000/svg">
<path d="M3.11157 1.00122C1.9482 1.00122 1 1.95948 1 3.13128V18.7557C1 19.2964 1.35123 19.7331 1.78155 19.8998C2.21295 20.0666 2.76139 19.9763 3.12105 19.5737L4.68734 17.8176C4.86137 17.6232 5.10712 17.5127 5.36658 17.5127H19.0011C19.3217 17.5127 19.8596 17.552 20.3248 17.3809C21.1348 17.0824 21.7075 16.2984 21.7075 15.3837V3.13007C21.7075 1.95826 20.7583 1 19.596 1L3.11157 1.00122ZM3.11157 1.85112H19.595C20.3048 1.85112 20.8628 2.41524 20.8628 3.13128V15.3849C20.8628 15.9437 20.5179 16.4069 20.0338 16.5854C19.884 16.6406 19.3376 16.664 19.0001 16.664H5.36668C4.86778 16.664 4.39421 16.8775 4.06093 17.2504L2.49149 19.0065C2.36387 19.1489 2.22254 19.1606 2.08331 19.1064C1.94409 19.0533 1.84389 18.947 1.84389 18.7558V3.13141C1.84389 2.41536 2.40174 1.85112 3.11157 1.85112ZM22.9753 6.01987H22.9742C22.8624 6.01987 22.7538 6.06449 22.6747 6.14523C22.5955 6.22491 22.5502 6.33328 22.5513 6.44696C22.5513 6.55957 22.5966 6.66793 22.6757 6.74656C22.7548 6.82624 22.8624 6.87086 22.9742 6.86979H25.8895C26.5994 6.86979 27.1573 7.43391 27.1573 8.14995V23.7743C27.1573 23.9666 27.0561 24.0718 26.9179 24.1249C26.7787 24.178 26.6373 24.1674 26.5097 24.0251L24.9434 22.269C24.6101 21.895 24.1344 21.6793 23.6355 21.6793H10.001C9.66457 21.6793 9.11612 21.6602 8.9674 21.605C8.48326 21.4265 8.13943 20.9622 8.13943 20.4034V18.7886H8.13838C8.13838 18.6749 8.09302 18.5676 8.01392 18.4879C7.93481 18.4082 7.82723 18.3636 7.71437 18.3636C7.48232 18.3647 7.29458 18.5538 7.29353 18.7886V20.4034C7.29353 21.3181 7.86625 22.1032 8.67628 22.4017C9.14143 22.5728 9.6804 22.5303 9.99996 22.5303H23.6345C23.8939 22.5303 24.1386 22.6429 24.3127 22.8373L25.8821 24.5945C26.2407 24.9971 26.7913 25.0874 27.2216 24.9206C27.653 24.7538 28 24.3161 28 23.7754V8.15101C28 6.97921 27.0518 6.02095 25.8884 6.02095L22.9753 6.01987ZM6.19538 6.70086H6.19432C5.96228 6.70192 5.77454 6.89102 5.77454 7.12475C5.77348 7.35847 5.96122 7.5497 6.19432 7.55076H16.5161C16.7492 7.5497 16.9369 7.35847 16.9359 7.12475C16.9359 6.89102 16.7481 6.70192 16.5161 6.70086H6.19538ZM6.19538 10.9643H6.19432C6.08252 10.9653 5.97494 11.0099 5.89688 11.0907C5.81777 11.1704 5.77347 11.2787 5.77453 11.3913C5.77453 11.6251 5.96227 11.8142 6.19432 11.8142H16.5161C16.7481 11.8142 16.9358 11.6251 16.9358 11.3913C16.9369 11.2787 16.8926 11.1704 16.8135 11.0907C16.7354 11.0099 16.6279 10.9653 16.5161 10.9643H6.19538Z" fill="white" stroke="white" stroke-width="0.3"/>
</svg>
