<svg width="25" height="26" viewBox="0 0 25 26" fill="none" xmlns="http://www.w3.org/2000/svg">
<path fill-rule="evenodd" clip-rule="evenodd" d="M13.6144 2.59314C12.9584 2.08244 12.0414 2.08244 11.3854 2.59314L2.91103 9.18366C2.46843 9.52754 2.20965 10.0564 2.20965 10.6171V22.7493C2.20965 23.7525 3.02338 24.5651 4.0255 24.5651H20.9742C21.9763 24.5651 22.7901 23.7525 22.7901 22.7493V10.6171C22.7901 10.0564 22.5313 9.52754 22.0887 9.18366L13.6144 2.59314ZM10.6422 1.63754C11.7351 0.787487 13.2649 0.787487 14.3578 1.63754L22.8322 8.22806C23.5688 8.8012 24 9.68301 24 10.6171V22.7493C24 24.421 22.6449 25.7761 20.9744 25.7761H4.02564C2.35506 25.7761 1 24.421 1 22.7493V10.6171C1 9.68303 1.43127 8.8012 2.16781 8.22806L10.6422 1.63754Z" fill="white" stroke="white" stroke-width="0.4"/>
</svg>
