<svg width="26" height="26" viewBox="0 0 26 26" fill="none" xmlns="http://www.w3.org/2000/svg">
<path fill-rule="evenodd" clip-rule="evenodd" d="M1.13043 0.579506C1.13043 0.267226 0.877492 0.00864933 0.565213 0.000148521C0.252933 -0.00691656 0 0.238953 0 0.551218V24.262C0 25.2143 0.785655 26 1.73944 26H25.4487C25.761 26 26.0083 25.7471 25.9998 25.4348C25.9927 25.1225 25.7327 24.8696 25.4204 24.8696H23.7389V3.95686C23.7389 3.02003 22.9801 2.26122 22.0433 2.26122H20.065C19.1282 2.26122 18.3694 3.02003 18.3694 3.95686V24.8696H16.1085V11.3045C16.1085 10.3676 15.3497 9.60881 14.4129 9.60881H12.4346C11.4978 9.60881 10.739 10.3676 10.739 11.3045V24.8696H8.47816V16.1087C8.47816 15.1719 7.71934 14.413 6.78252 14.413H4.80425C3.86743 14.413 3.10862 15.1719 3.10862 16.1087V24.8696H1.71112C1.39319 24.8696 1.13035 24.6082 1.13035 24.2916L1.13043 0.579506ZM20.0651 3.39143C19.7529 3.39143 19.4999 3.64436 19.4999 3.95664V24.8694H22.6086V3.95664C22.6086 3.64436 22.3557 3.39143 22.0434 3.39143H20.0651ZM11.8696 11.3044C11.8696 10.9921 12.1226 10.7392 12.4349 10.7392H14.4131C14.7254 10.7392 14.9783 10.9921 14.9783 11.3044V24.8695H11.8696V11.3044ZM4.23919 16.1086C4.23919 15.7964 4.49212 15.5434 4.8044 15.5434H6.78266C7.09494 15.5434 7.34787 15.7964 7.34787 16.1086V24.8695H4.23919V16.1086Z" fill="white"/>
</svg>
