<svg width="25" height="25" viewBox="0 0 25 25" fill="none" xmlns="http://www.w3.org/2000/svg">
<path d="M23.895 14.15L22.3386 13.0993V12.4535V11.8078L23.895 10.757C24.9151 10.0675 25.2249 8.70587 24.6032 7.64316L22.6735 4.31244C22.0595 3.26169 20.7417 2.85891 19.646 3.38646L17.9648 4.20299C17.5511 3.92936 17.1198 3.68527 16.6722 3.47184L16.5791 2.15622C16.485 0.936909 15.4671 -0.00326975 14.2434 8.57457e-06H10.6555C9.43288 -0.00327508 8.41498 0.936938 8.32086 2.15622L8.22782 3.47184C7.78015 3.68527 7.34783 3.92935 6.93518 4.20299L5.26932 3.38646C4.1748 2.86328 2.86356 3.26607 2.24961 4.31244L0.319967 7.66726C-0.301738 8.72896 0.00802203 10.0916 1.02811 10.78L2.58453 11.8307V12.4765V13.1223L1.02811 14.173V14.1741C0.00802203 14.8626 -0.301738 16.2242 0.319967 17.2868L2.25071 20.6492H2.24961C2.86364 21.7 4.18144 22.1028 5.27716 21.5752L6.95835 20.797C7.37209 21.0706 7.80332 21.3158 8.25099 21.5293L8.34403 22.8449V22.8438C8.43816 24.0631 9.45608 25.0033 10.6797 25H14.2918H14.2907C15.5133 25.0033 16.5323 24.0631 16.6253 22.8438L16.7183 21.5282L16.7194 21.5293C17.166 21.3158 17.5983 21.0707 18.011 20.797L19.6922 21.5752C20.7889 22.1028 22.1067 21.7 22.7197 20.6492L24.6505 17.2944C25.2831 16.213 24.9493 14.8263 23.8952 14.1497L23.895 14.15ZM23.5141 16.6018L21.5757 19.9642C21.2977 20.4436 20.6968 20.6264 20.1977 20.3845L18.1816 19.4038H18.1827C17.9736 19.2998 17.7241 19.3206 17.5358 19.4585C17.0017 19.8471 16.4249 20.1732 15.8163 20.4315C15.5974 20.5235 15.4486 20.7314 15.4343 20.969L15.3172 22.6578H15.3183C15.2778 23.2083 14.8203 23.6352 14.2676 23.6385H10.6555C10.105 23.6319 9.64966 23.2073 9.60478 22.6578L9.48766 20.969H9.48876C9.47453 20.7315 9.32567 20.5235 9.10676 20.4315C8.50038 20.1754 7.92578 19.8482 7.39491 19.4585C7.20337 19.3217 6.95164 19.2998 6.7404 19.4038L4.72538 20.3845C4.22629 20.6264 3.62537 20.4436 3.34736 19.9642L1.40894 16.6018C1.13531 16.1213 1.2776 15.5106 1.73621 15.2008L3.5969 13.9399H3.59581C3.7972 13.8129 3.91431 13.5864 3.90008 13.3488C3.83769 12.7534 3.83769 12.1536 3.90008 11.5582C3.92087 11.3273 3.81689 11.1018 3.62754 10.9672L1.7362 9.70626C1.2776 9.3965 1.13531 8.78575 1.40892 8.30527L3.34734 4.94288C3.62535 4.46349 4.22624 4.28069 4.72536 4.52259L6.74147 5.50328H6.74038C6.95162 5.60726 7.20335 5.58537 7.39489 5.44856C7.92573 5.05891 8.50036 4.73164 9.10674 4.47551C9.32565 4.38357 9.4745 4.17561 9.48874 3.93809L9.60585 2.24925H9.60476C9.64963 1.6998 10.105 1.27511 10.6555 1.26855H14.2675C14.8203 1.27183 15.2778 1.69871 15.3183 2.24925L15.4354 3.93809H15.4343C15.4485 4.1756 15.5974 4.38355 15.8163 4.47551C16.4249 4.73382 17.0017 5.05998 17.5358 5.44856C17.7241 5.58647 17.9736 5.60726 18.1827 5.50328L20.1988 4.52259H20.1977C20.6968 4.2807 21.2977 4.46348 21.5757 4.94288L23.5141 8.30527C23.7878 8.78575 23.6455 9.3965 23.1868 9.70626L21.3262 10.9672H21.3273C21.1368 11.1018 21.0339 11.3273 21.0547 11.5582C21.1171 12.1536 21.1171 12.7534 21.0547 13.3488C21.0339 13.5798 21.1368 13.8053 21.3273 13.9399L23.1879 15.2008H23.1868C23.6455 15.5106 23.7878 16.1213 23.5141 16.6018Z" fill="white"/>
</svg>
