<svg width="42" height="41" viewBox="0 0 42 41" fill="none" xmlns="http://www.w3.org/2000/svg">
<path d="M20.5441 0C9.21631 0 0 9.05656 0 20.188C0 31.3194 9.21631 40.376 20.5441 40.376C31.8719 40.376 41.0882 31.3194 41.0882 20.188C41.0882 9.05656 31.8719 0 20.5441 0ZM20.5441 22.4308C16.7682 22.4308 13.6964 19.412 13.6964 15.7018C13.6964 11.9916 16.7685 8.97282 20.5441 8.97282C24.3197 8.97282 27.3918 11.9916 27.3918 15.7018C27.3918 19.412 24.3197 22.4308 20.5441 22.4308ZM20.5441 38.8801C15.2352 38.8801 10.4298 36.7286 6.97578 33.2704C9.04538 27.6664 14.4361 23.9262 20.5441 23.9262C26.6521 23.9262 32.0428 27.6666 34.1124 33.2704C30.658 36.7285 25.853 38.8801 20.5441 38.8801Z" fill="#838383"/>
</svg>
